<?xml version="1.0" encoding="utf-8"?>
<svg
  xmlns="http://www.w3.org/2000/svg"
  enable-background="new 0 0 700 700"
  id="Layer_1"
  version="1.1"
  viewBox="0 0 700 700"
  x="0px" y="0px"
  preserveAspectRatio="xMinYMin meet">
  <defs/>
<g transform="matrix(1, 0, 0, 1, -146.836853, -166.999908)"><path style="fill: rgb(255, 255, 255);" transform="matrix(0.999997, 0.002295, -0.002295, 0.999997, 147.69959, 158.399925)" d="M 111.026 265.345 H 627.82 V 605.677 H 143.026 A 32 32 0 0 1 111.026 573.677 V 265.345 Z"/><g transform="matrix(1, 0, 0, 1, -15.021, 40.881001)"><path d="M 386.097 243.078 C 386.334 243.112 386.521 243.228 386.99 243.93 C 388.953 244.617 390.584 244.96 392.214 244.961 C 473.119 244.986 554.023 244.989 634.928 244.934 C 636.625 244.933 638.322 244.226 640.018 243.849 C 640.018 243.849 639.858 243.99 640.213 243.892 C 641.043 242.532 641.926 241.272 641.932 240.007 C 642 226.643 641.928 213.279 641.83 199.956 C 641.765 199.997 641.674 199.873 642.021 199.747 C 642.515 198.692 642.663 197.764 642.771 196.875 C 642.731 196.914 642.667 196.823 643.036 196.774 C 644.235 194.765 645.065 192.806 645.905 190.895 C 645.915 190.942 645.819 190.933 646.095 190.844 C 646.544 190.421 646.718 190.088 646.892 189.756 C 646.892 189.756 646.998 189.87 647.226 189.752 C 647.622 189.226 647.791 188.819 647.96 188.412 C 648.157 188.051 648.353 187.69 648.621 187.131 C 648.692 186.934 649.053 186.877 649.558 186.837 C 650.368 186.487 650.673 186.178 650.979 185.868 C 650.979 185.868 650.938 185.988 651.151 185.883 C 651.563 185.475 651.763 185.172 651.963 184.868 C 651.963 184.868 651.96 184.955 652.314 184.964 C 655.815 183.989 658.928 182.327 662.115 182.172 C 667.43 181.913 672.791 182.618 678.133 182.918 C 678.133 182.918 678.029 182.939 678.162 183.183 C 678.902 183.599 679.509 183.771 680.116 183.943 C 680.116 183.943 680.033 183.956 680.102 184.153 C 680.6 184.541 681.03 184.732 681.694 185.187 C 683.969 187.476 686.012 189.501 688.139 191.839 C 688.526 192.433 688.826 192.713 689.077 192.987 C 689.027 192.98 689.049 192.882 689.055 193.212 C 689.424 194.024 689.787 194.506 690.098 194.992 C 690.046 194.994 690.052 194.89 690.039 195.312 C 690.689 202.418 691.636 209.089 691.939 215.79 C 692.273 223.211 691.949 230.66 692.072 238.094 C 692.1 239.79 692.788 241.475 693.184 243.264 C 693.195 243.363 693.002 243.41 693.219 243.791 C 694.36 244.439 695.284 244.935 696.209 244.938 C 713.865 244.99 731.52 244.997 749.176 244.955 C 750.094 244.953 751.01 244.432 752.319 244.092 C 756.138 244.973 759.566 245.915 763.291 247.045 C 766.975 249.185 770.363 251.135 773.828 253.407 C 774.58 254.534 775.255 255.338 776.075 256.445 C 778.465 259.173 780.71 261.598 782.708 264.185 C 783.046 265.204 783.63 266.062 784.174 266.958 C 784.135 266.996 784.06 266.916 784.066 267.279 C 785.098 269.421 786.123 271.199 787.11 272.963 C 787.073 272.949 787.12 272.885 787.099 273.32 C 787.721 283.169 788.893 292.581 788.921 301.997 C 789.092 360.814 789.008 419.632 789.008 478.449 C 789.008 479.345 789.008 480.241 789.008 481.378 C 787.885 480.825 787.311 480.542 786.819 479.918 C 786.554 479.054 786.208 478.531 785.913 478.01 C 785.964 478.012 785.952 478.114 785.951 477.753 C 785.594 476.597 785.239 475.801 784.924 475.007 C 784.964 475.009 784.95 475.088 784.943 474.763 C 784.569 473.967 784.203 473.496 783.602 472.895 C 783.228 472.258 783.088 471.751 782.895 470.991 C 782.618 470.487 782.394 470.237 782.094 470.05 C 782.018 470.112 781.83 470.053 781.91 469.671 C 777.051 456.898 769.791 446.083 759.994 436.625 C 759.281 435.473 758.615 434.654 757.825 433.65 C 757.479 433.253 757.215 433.127 756.846 432.838 C 756.498 432.417 756.215 432.243 755.868 431.823 C 755.531 431.388 755.259 431.2 754.9 430.78 C 754.625 430.26 754.366 430.066 753.99 429.622 C 752.301 428.181 750.659 427.082 748.965 425.614 C 747.927 422.474 746.828 419.736 745.982 416.922 C 744.815 413.042 745.97 408.14 740.97 405.662 C 740.257 404.921 739.584 404.507 738.912 403.758 C 738.258 402.968 737.602 402.513 736.814 401.78 C 736.105 401.355 735.529 401.209 734.936 400.684 C 732.94 399.543 730.961 398.781 728.518 398.014 C 584.371 398.008 440.687 398.006 296.629 398 C 295.504 397.998 294.755 398.001 293.636 398.007 C 285.042 400.545 278.848 408.997 278.927 417.672 C 279.141 441.135 279 464.602 279 488.068 C 279 544.318 279.004 600.569 278.993 656.82 C 278.992 661.564 279.948 665.881 284.21 669.008 C 284.706 668.977 284.902 668.944 285.165 669.156 C 285.51 669.573 285.789 669.744 286.069 670.247 C 286.715 671.051 287.36 671.524 288.152 672.319 C 291.623 673.767 294.943 675.863 298.268 675.872 C 372.054 676.059 445.841 676.064 519.627 675.913 C 524.711 675.903 526.255 677.384 526.103 682.428 C 525.763 693.744 525.998 705.077 525.997 716.403 C 525.996 722.97 525.994 722.975 519.628 722.975 C 441.677 722.976 363.726 722.906 285.775 723.071 C 277.085 723.09 269.285 720.685 261.54 717.331 C 259.279 716.352 256.891 715.667 254.562 714.847 C 252.171 712.541 249.779 710.236 247.085 707.4 C 246.464 706.595 246.145 706.32 245.826 706.045 C 245.826 706.045 245.885 706.121 245.848 706.151 C 245.416 705.21 245.021 704.238 244.318 703.129 C 242.278 697.32 240.359 691.695 238.895 685.954 C 238.17 683.11 238.051 680.052 238.05 677.091 C 238.003 549.703 238.001 422.315 237.98 294.457 C 238.984 286.264 240.001 278.54 241.014 270.412 C 241.334 269.541 241.659 269.075 241.994 268.307 C 242.332 267.541 242.658 267.077 242.999 266.312 C 243.367 265.953 243.634 265.769 243.904 265.227 C 244.3 264.488 244.607 263.982 244.873 263.16 C 244.832 262.844 244.89 262.904 245.128 262.841 C 245.547 262.458 245.727 262.137 245.907 261.816 C 245.907 261.816 245.899 261.935 246.122 261.847 C 246.523 261.439 246.702 261.119 246.881 260.8 C 246.881 260.8 246.864 260.932 247.119 260.803 C 247.555 260.068 247.735 259.462 247.916 258.856 C 247.916 258.856 247.95 258.949 248.168 258.865 C 248.577 258.469 248.768 258.158 248.96 257.846 C 248.96 257.846 248.936 257.954 249.249 257.932 C 250.016 257.18 250.472 256.452 250.927 255.723 C 251.389 255.187 251.851 254.65 252.907 254.034 C 253.97 253.561 254.439 253.169 254.909 252.776 C 254.909 252.776 254.954 252.893 255.166 252.824 C 255.563 252.437 255.747 252.118 255.932 251.799 C 255.932 251.799 255.929 251.915 256.226 251.927 C 257.331 251.231 258.139 250.522 258.946 249.813 C 258.946 249.813 258.952 249.925 259.234 249.93 C 259.992 249.549 260.468 249.162 260.945 248.775 C 260.945 248.775 260.96 248.893 261.269 248.933 C 262.344 248.549 263.109 248.123 263.875 247.698 C 263.875 247.698 263.822 247.638 263.82 247.599 C 267.371 246.895 270.923 246.23 275.208 245.288 C 293.193 245 310.445 245.034 327.697 244.91 C 329.465 244.897 331.226 243.939 332.99 243.42 C 332.99 243.42 332.837 243.174 333.24 242.784 C 333.767 232.668 333.94 222.943 333.974 213.217 C 333.98 211.497 333.414 209.775 333.111 208.053 C 333.061 207.586 333.01 207.118 333.417 206.228 C 334.232 203.514 334.59 201.221 334.947 198.928 C 334.947 198.928 334.915 199.017 335.199 198.843 C 335.971 197.073 336.457 195.476 336.951 193.93 C 336.958 193.979 336.858 193.98 337.187 193.877 C 337.983 192.794 338.45 191.815 338.916 190.836 C 338.916 190.836 338.961 190.944 339.167 190.871 C 339.574 190.5 339.775 190.202 339.975 189.904 C 339.975 189.904 339.974 189.984 340.183 189.88 C 340.585 189.485 340.779 189.194 340.973 188.903 C 340.973 188.903 340.983 188.977 341.192 188.873 C 341.59 188.479 341.781 188.187 341.972 187.896 C 341.972 187.896 341.987 187.969 342.202 187.874 C 342.628 187.491 342.838 187.203 343.049 186.916 C 348.532 182.166 355.201 180.662 362.933 179.963 C 365.804 180.593 367.897 181.196 369.99 181.799 C 371.14 182.475 372.291 183.15 373.886 184.211 C 376.572 186.893 378.812 189.19 381.138 191.805 C 381.524 192.414 381.824 192.705 382.07 192.981 C 382.017 192.966 382.056 192.861 382.066 193.179 C 382.398 193.981 382.72 194.466 383.031 195.368 C 383.682 202.519 384.631 209.24 384.933 215.99 C 385.267 223.465 384.95 230.967 385.059 238.455 C 385.082 240.001 385.735 241.537 386.097 243.078" opacity="1.000000" fill="#377AAF" style="paint-order: stroke; stroke: rgb(54, 123, 175);"/><path d="M 815.827 734.971 C 814.572 738.387 813.316 741.803 812.023 745.598 C 811.985 745.977 811.967 745.943 811.681 746.123 C 807.917 749.862 804.439 753.42 800.979 756.991 C 800.997 757.004 800.982 756.963 800.671 757.049 C 799.484 757.727 798.607 758.319 797.532 758.935 C 797.333 758.96 796.994 759.173 796.78 759.162 C 796.294 759.255 796.014 759.283 795.322 759.189 C 793.305 759.786 791.692 760.43 789.625 761.063 C 784.383 761.361 779.59 762.001 774.808 761.929 C 703.167 760.845 631.486 764.391 559.927 760.05 C 559.98 760.046 559.977 760.152 559.865 759.807 C 558.465 759.016 557.177 758.57 555.775 757.828 C 555.061 757.374 554.46 757.216 553.91 757.046 C 553.96 757.035 553.968 757.137 553.917 756.881 C 553.279 756.583 552.692 756.54 551.823 756.662 C 550.364 755.884 549.187 754.941 547.932 753.663 C 545.593 750.221 543.332 747.115 541.002 743.645 C 540.007 740.497 539.081 737.713 538.422 734.66 C 538.161 730.943 537.632 727.497 537.017 723.585 C 536.877 707.077 536.822 691.033 536.823 674.525 C 536.956 659.356 537.032 644.652 537.365 629.748 C 537.45 628.383 537.278 627.217 537.018 625.623 C 536.987 623.449 537.044 621.704 537.275 619.891 C 537.333 619.562 537.216 619.302 537.014 618.577 C 536.986 609.059 537.046 600.005 537.353 590.782 C 537.434 589.758 537.266 588.902 537.013 587.666 C 536.982 586.511 537.038 585.736 537.271 584.895 C 537.331 584.565 537.214 584.302 537.019 583.62 C 537.298 580.592 537.272 577.858 538.078 575.396 C 542.013 563.377 548.285 553.685 562.245 551.737 C 565.894 551.227 569.433 549.93 573.315 548.968 C 573.923 548.62 574.238 548.299 574.552 547.978 C 574.062 547.658 573.572 547.338 573.004 546.553 C 572.982 536.713 573.038 527.336 573.326 517.836 C 573.404 517.155 573.25 516.598 573.01 515.641 C 572.978 514.154 573.031 513.068 573.475 511.899 C 575.224 503.952 576.274 496.017 578.04 488.245 C 579.45 482.037 581.76 476.036 583.604 469.923 C 584.107 468.257 584.37 466.518 584.656 464.781 C 584.569 464.749 584.572 464.565 584.941 464.676 C 586.389 462.443 587.467 460.099 588.572 457.82 C 588.599 457.885 588.606 457.745 588.948 457.689 C 589.442 457.009 589.593 456.385 589.768 455.817 C 589.79 455.874 589.671 455.85 590.003 455.76 C 590.51 455.048 590.685 454.425 590.876 453.863 C 590.891 453.924 590.765 453.915 591.113 453.844 C 591.935 452.789 592.409 451.804 592.889 450.867 C 592.894 450.914 592.803 450.886 593.169 450.896 C 593.886 450.154 594.237 449.402 594.651 448.667 C 594.713 448.685 594.633 448.787 594.969 448.724 C 595.5 448.049 595.693 447.435 595.893 446.869 C 595.899 446.915 595.809 446.889 596.172 446.901 C 596.931 446.172 597.328 445.431 597.754 444.751 C 597.783 444.812 597.65 444.789 597.934 444.775 C 598.461 444.295 598.704 443.829 599.249 443.181 C 605.398 437.655 611.078 432.107 617.17 427.058 C 619.869 424.822 623.403 423.593 626.97 421.94 C 632.657 420.121 637.876 418.091 643.214 416.449 C 663.622 410.17 684.236 409.328 705.017 414.504 C 710.737 415.929 716.437 417.436 722.09 418.903 C 722.034 418.9 722.065 418.793 722.147 419.14 C 726.208 421.29 730.186 423.093 734.11 424.908 C 734.055 424.92 734.059 424.808 734.142 425.151 C 735.218 425.948 736.21 426.404 737.141 426.878 C 737.081 426.897 737.08 426.77 737.157 427.114 C 738.216 427.936 739.197 428.413 740.121 428.906 C 740.065 428.923 740.06 428.805 740.151 429.082 C 740.576 429.53 740.912 429.702 741.177 429.815 C 741.106 429.757 741.244 429.638 741.222 429.852 C 741.464 430.052 741.728 430.038 742.269 430.074 C 743.013 430.425 743.48 430.725 744.085 431.314 C 745.822 432.858 747.422 434.114 749.176 435.599 C 749.496 435.908 749.663 435.988 749.984 436.353 C 753.082 439.789 756.024 442.939 759.054 446.354 C 759.392 447.101 759.643 447.584 759.74 448.165 C 759.776 448.458 759.968 448.652 760.21 449.115 C 760.554 449.581 760.847 449.778 761.086 449.97 C 761.032 449.964 761.058 449.859 761.063 450.181 C 761.464 450.927 761.86 451.351 762.249 452.044 C 762.493 452.54 762.747 452.767 763.023 453.304 C 763.406 454.07 763.767 454.525 764.083 454.991 C 764.039 455.002 764.023 454.912 764.116 455.163 C 764.498 455.604 764.786 455.794 765.04 455.982 C 765.005 455.981 765.025 455.914 765.064 456.232 C 765.446 457.032 765.789 457.514 766.08 457.987 C 766.027 457.979 766.053 457.876 766.059 458.201 C 766.418 459.014 766.772 459.502 767.069 459.94 C 767.013 459.889 767.118 459.779 767.095 460.113 C 767.412 460.961 767.752 461.475 768.056 461.982 C 768.02 461.974 768.06 461.911 768.055 462.229 C 768.397 463.026 768.744 463.506 769.054 463.985 C 769.017 463.983 769.057 463.92 769.053 464.239 C 769.402 465.033 769.756 465.51 770.071 465.981 C 770.033 465.976 770.063 465.905 770.058 466.228 C 770.414 467.028 770.773 467.505 771.093 467.986 C 771.052 467.99 771.057 467.908 771.056 468.234 C 771.421 469.035 771.788 469.511 772.105 469.994 C 772.055 470.002 772.05 469.9 772.057 470.235 C 772.422 471.082 772.78 471.596 773.178 472.207 C 773.218 472.305 773.043 472.424 773.052 472.803 C 773.417 473.79 773.773 474.399 774.083 475.007 C 774.037 475.007 774.045 474.915 774.036 475.301 C 774.716 477.456 775.405 479.224 776.057 480.994 C 776.021 480.995 776.052 480.929 776.037 481.306 C 776.379 482.788 776.736 483.893 777.057 484.998 C 777.021 484.997 777.054 484.933 777.039 485.311 C 777.38 486.79 777.737 487.891 778.056 488.995 C 778.02 488.998 778.059 488.936 778.034 489.383 C 778.676 499.214 779.589 508.59 779.938 517.987 C 780.27 526.941 779.955 535.917 780.065 544.882 C 780.085 546.587 780.76 548.285 781.568 549.986 C 789.471 549.296 795.641 552.933 802.021 556.322 C 802.595 557.487 802.979 558.502 803.707 559.094 C 812.903 566.578 815.259 576.423 815.173 587.893 C 814.846 631.341 815.012 674.794 815.088 718.245 C 815.096 722.866 815.723 727.487 816.062 732.108 C 816.062 732.108 816.054 732.025 815.76 732.07 C 815.587 733.066 815.707 734.018 815.827 734.971 M 717.713 457.643 C 716.727 457.189 715.741 456.736 714.914 456.256 C 714.914 456.256 714.785 456.352 714.709 455.623 C 713.725 455.249 712.74 454.875 711.739 454.432 C 711.739 454.432 711.794 454.388 711.602 453.675 C 710.678 453.491 709.755 453.308 708.953 453.126 C 708.953 453.126 708.919 453.243 708.754 452.523 C 707.68 451.789 706.698 450.826 705.519 450.355 C 691.735 444.845 677.373 445.345 662.998 446.59 C 659.969 446.852 657.025 448.096 653.365 449.208 C 650.059 450.607 646.353 451.454 643.523 453.507 C 634.718 459.898 626.16 466.661 619.664 476.237 C 619.483 476.562 619.302 476.886 619.224 477.082 C 619.224 477.082 619.336 477.203 618.605 477.284 C 617.839 478.333 616.857 479.286 616.341 480.446 C 612.063 490.056 609.424 500.144 609.076 510.635 C 608.702 521.915 608.941 533.216 609.031 544.507 C 609.044 546.035 609.748 547.558 610.464 549.25 C 610.695 549.377 610.847 549.567 610.94 550.425 C 610.96 550.625 610.98 550.826 611.604 551.599 C 612.248 551.73 612.892 551.976 613.536 551.976 C 655.459 551.997 697.383 552.006 739.306 551.958 C 740.537 551.957 741.768 551.344 742.984 550.4 C 742.954 550.196 742.925 549.993 742.96 549.906 C 742.96 549.906 742.836 549.953 743.638 549.755 C 744.084 548.796 744.931 547.83 744.915 546.879 C 744.659 531.608 744.689 516.313 743.731 501.082 C 743.411 495.985 740.506 491.052 738.893 485.997 C 738.893 485.997 738.93 486.111 738.975 485.32 C 737.591 482.569 736.208 479.818 734.917 477.01 C 734.917 477.01 734.965 477.108 734.755 476.587 C 734.437 476.405 734.118 476.223 733.214 475.724 C 729.444 471.167 725.675 466.61 722.261 461.728 C 721.768 461.504 721.276 461.281 720.359 460.987 C 720.07 460.845 719.924 460.613 719.922 459.546 C 719.169 459.16 718.417 458.775 717.667 458.255 C 717.667 458.255 717.74 458.367 717.713 457.643" fill="#367AAF" opacity="1.000000" stroke="none"/></g><text style="fill: rgb(255, 255, 255); font-family: Arial; font-size: 120px; font-weight: 700; letter-spacing: 8px; white-space: pre; text-anchor: middle;" transform="matrix(0.99751, 0, 0, 1, -17.452005, 61.905014)" y="340.661" x="500.23">
  CalDAV
 </text><text style="fill: rgb(255, 255, 255); font-family: Arial; font-size: 120px; font-weight: 700; text-anchor: end; white-space: pre;" x="828.222" y="729.596">
  .ics
 </text><path d="M 591.735 1402.753 H 733.807 L 725.081 1376.958 L 812.336 1415.651 L 725.081 1454.344 L 733.807 1428.548 H 591.735 V 1402.753 Z" style="fill: rgb(54, 123, 175);" transform="matrix(0.999993, -0.003714, 0.003714, 0.999993, -296.844482, -852.136047)"/></g></svg>